<svg width="22" height="22" viewBox="0 0 22 22" fill="none" xmlns="http://www.w3.org/2000/svg">
<path fill-rule="evenodd" clip-rule="evenodd" d="M1.83325 11.0138C1.83325 6.1849 5.69242 1.83337 11.0183 1.83337C16.2249 1.83337 20.1666 6.10228 20.1666 10.9863C20.1666 16.6506 15.5466 20.1667 10.9999 20.1667C9.49659 20.1667 7.82825 19.7627 6.48992 18.9732C6.02242 18.6887 5.62825 18.4775 5.12409 18.6427L3.27242 19.1936C2.80492 19.3404 2.38325 18.9732 2.52075 18.4775L3.13492 16.4211C3.23575 16.1365 3.21742 15.8335 3.07075 15.5948C2.28242 14.1443 1.83325 12.5561 1.83325 11.0138ZM9.80825 11.0138C9.80825 11.6656 10.3308 12.1889 10.9816 12.1981C11.6324 12.1981 12.1549 11.6656 12.1549 11.023C12.1549 10.3712 11.6324 9.84788 10.9816 9.84788C10.3399 9.83872 9.80825 10.3712 9.80825 11.0138ZM14.0341 11.023C14.0341 11.6656 14.5566 12.1981 15.2074 12.1981C15.8583 12.1981 16.3808 11.6656 16.3808 11.023C16.3808 10.3712 15.8583 9.84788 15.2074 9.84788C14.5566 9.84788 14.0341 10.3712 14.0341 11.023ZM6.75575 12.1981C6.11409 12.1981 5.58242 11.6656 5.58242 11.023C5.58242 10.3712 6.10492 9.84788 6.75575 9.84788C7.40659 9.84788 7.92909 10.3712 7.92909 11.023C7.92909 11.6656 7.40659 12.1889 6.75575 12.1981Z" fill="#AFB7BD"/>
</svg>
