<svg width="22" height="22" viewBox="0 0 22 22" fill="none" xmlns="http://www.w3.org/2000/svg">
<path d="M8.37363 19.0422V16.2393C8.37363 15.5239 8.9579 14.9438 9.67861 14.9438H12.3133C12.6594 14.9438 12.9914 15.0803 13.2361 15.3233C13.4809 15.5662 13.6184 15.8958 13.6184 16.2393V19.0422C13.6162 19.3397 13.7337 19.6258 13.9448 19.8369C14.1559 20.048 14.4432 20.1667 14.7427 20.1667H16.5402C17.3797 20.1688 18.1856 19.8393 18.78 19.2508C19.3744 18.6623 19.7084 17.8631 19.7084 17.0297V9.04466C19.7084 8.37146 19.4078 7.7329 18.8876 7.30099L12.7729 2.45292C11.7093 1.60289 10.1853 1.63033 9.15336 2.51811L3.17817 7.30099C2.63343 7.72016 2.30784 8.36063 2.29175 9.04466V17.0215C2.29175 18.7586 3.71018 20.1667 5.4599 20.1667H7.21635C7.83871 20.1667 8.3445 19.6682 8.34901 19.0504L8.37363 19.0422Z" fill="#AFB7BD"/>
</svg>
