<svg width="46" height="46" viewBox="0 0 46 46" fill="none" xmlns="http://www.w3.org/2000/svg">
<rect width="46" height="46" rx="18" fill="#00D95F"/>
<g clip-path="url(#clip0_1_34)">
<rect x="12.1667" y="12.1667" width="21.6667" height="21.6667" rx="10" fill="white"/>
<path d="M23 10C15.8203 10 10 15.8203 10 23C10 30.1797 15.8203 36 23 36C30.1797 36 36 30.1797 36 23C36 15.8203 30.1797 10 23 10ZM28.6578 28.8666C28.4925 29.1494 28.195 29.3071 27.8894 29.3071C27.7371 29.3071 27.5828 29.2679 27.4417 29.1856C25.1056 27.8203 22.4068 27.6009 20.5537 27.6572C18.501 27.7197 16.9957 28.1249 16.9807 28.129C16.5075 28.2583 16.0185 27.9798 15.8887 27.5067C15.759 27.0336 16.0365 26.545 16.5094 26.4147C16.5773 26.396 18.1972 25.956 20.4497 25.8817C21.7766 25.8379 23.0539 25.9304 24.2458 26.1565C25.7554 26.4429 27.1324 26.9455 28.3388 27.6506C28.7627 27.8982 28.9055 28.4427 28.6578 28.8666ZM30.3105 25.434C30.1147 25.7691 29.7623 25.9558 29.4004 25.9559C29.2199 25.9559 29.0371 25.9095 28.87 25.8119C26.1029 24.1947 22.906 23.9349 20.7111 24.0016C18.2795 24.0756 16.4964 24.5556 16.4787 24.5604C15.9184 24.7133 15.339 24.3837 15.1853 23.8233C15.0316 23.2629 15.3603 22.6841 15.9205 22.5297C16.0009 22.5076 17.9196 21.9864 20.5879 21.8984C22.1597 21.8466 23.6727 21.9561 25.0844 22.2239C26.8726 22.5632 28.5037 23.1586 29.9326 23.9936C30.4348 24.287 30.604 24.9319 30.3105 25.434ZM31.3265 22.313C31.1051 22.313 30.8809 22.2561 30.6759 22.1363C24.0973 18.2916 15.5635 20.5773 15.4781 20.6009C14.7903 20.7904 14.0792 20.3865 13.8898 19.6987C13.7003 19.011 14.1042 18.2999 14.792 18.1105C14.8905 18.0833 17.2441 17.444 20.517 17.3361C22.445 17.2726 24.3008 17.4068 26.0325 17.7353C28.2259 18.1514 30.2267 18.8817 31.9794 19.906C32.5952 20.266 32.8027 21.057 32.4428 21.6729C32.2027 22.0838 31.7705 22.313 31.3265 22.313Z" fill="#00D95F"/>
</g>
<defs>
<clipPath id="clip0_1_34">
<rect width="26" height="26" fill="white" transform="translate(10 10)"/>
</clipPath>
</defs>
</svg>
