<svg width="22" height="22" viewBox="0 0 22 22" fill="none" xmlns="http://www.w3.org/2000/svg">
<path fill-rule="evenodd" clip-rule="evenodd" d="M16.2881 7.68332H20.1666C20.1666 4.56921 18.3006 2.75 15.1392 2.75H6.86066C3.69918 2.75 1.83325 4.56921 1.83325 7.6436V14.3564C1.83325 17.4308 3.69918 19.25 6.86066 19.25H15.1392C18.3006 19.25 20.1666 17.4308 20.1666 14.3564V14.0704H16.2881C14.488 14.0704 13.0288 12.6477 13.0288 10.8928C13.0288 9.13778 14.488 7.7151 16.2881 7.7151V7.68332ZM16.2881 9.04971H19.4821C19.8601 9.04971 20.1666 9.34844 20.1666 9.71703V12.0367C20.1622 12.4035 19.8583 12.6998 19.4821 12.704H16.3614C15.4502 12.716 14.6533 12.1077 14.4466 11.2423C14.3431 10.7051 14.4884 10.1508 14.8436 9.72785C15.1987 9.30499 15.7274 9.05673 16.2881 9.04971ZM16.4266 11.4886H16.7281C17.1151 11.4886 17.4288 11.1827 17.4288 10.8054C17.4288 10.4281 17.1151 10.1222 16.7281 10.1222H16.4266C16.2415 10.1201 16.0632 10.1902 15.9316 10.3171C15.8 10.444 15.7258 10.6169 15.7259 10.7974C15.7258 11.1761 16.0383 11.4842 16.4266 11.4886ZM6.17622 7.68332H11.3503C11.7373 7.68332 12.0511 7.37744 12.0511 7.00012C12.0511 6.6228 11.7373 6.31692 11.3503 6.31692H6.17622C5.79236 6.3169 5.47994 6.61797 5.47547 6.99218C5.47545 7.3708 5.78789 7.67896 6.17622 7.68332Z" fill="#AFB7BD"/>
</svg>
