<svg width="46" height="46" viewBox="0 0 46 46" fill="none" xmlns="http://www.w3.org/2000/svg">
<rect width="46" height="46" rx="18" fill="black"/>
<g clip-path="url(#clip0_1_18)">
<path d="M26.7491 13C25.6828 13.0737 24.4366 13.7562 23.7103 14.645C23.0479 15.4512 22.5029 16.6487 22.7154 17.8125C23.8803 17.8487 25.0841 17.15 25.7816 16.2462C26.4341 15.405 26.9278 14.215 26.7491 13Z" fill="white"/>
<path d="M30.9629 19.71C29.9392 18.4262 28.5004 17.6812 27.1417 17.6812C25.348 17.6812 24.5892 18.54 23.343 18.54C22.058 18.54 21.0817 17.6837 19.5305 17.6837C18.0068 17.6837 16.3843 18.615 15.3555 20.2074C13.9093 22.4499 14.1568 26.6662 16.5005 30.2574C17.3393 31.5424 18.4593 32.9874 19.9242 32.9999C21.228 33.0124 21.5955 32.1636 23.3617 32.1549C25.128 32.1449 25.463 33.0111 26.7642 32.9974C28.2305 32.9861 29.4117 31.3849 30.2504 30.0999C30.8517 29.1787 31.0754 28.7149 31.5417 27.6749C28.1505 26.3837 27.6067 21.5612 30.9629 19.71Z" fill="white"/>
</g>
<defs>
<clipPath id="clip0_1_18">
<rect width="20" height="20" fill="white" transform="translate(13 13)"/>
</clipPath>
</defs>
</svg>
