<svg width="46" height="46" viewBox="0 0 46 46" fill="none" xmlns="http://www.w3.org/2000/svg">
<rect width="46" height="46" rx="18" fill="#E23744"/>
<g clip-path="url(#clip0_1_74)">
<path d="M8.73981 8.00064H37.2599C37.6686 8.00064 37.9996 8.33183 37.9996 8.74038V37.2601C37.9996 37.6688 37.6686 38 37.2599 38H8.73981C8.33117 38.0002 8 37.6692 8 37.2605V8.74038C8 8.33183 8.33117 8.00064 8.73981 8.00064Z" fill="#E23744"/>
<path d="M31.737 24.4531L31.5777 25.44C31.3304 25.5739 30.8683 25.7661 30.3342 25.7661C29.4255 25.7661 29.2421 25.2813 29.3856 24.2528L29.6167 22.597H29.1696L29.2964 21.5254L29.7842 21.5017L29.9676 20.7238L31.3464 20.2054L31.1713 21.5017H32.1198C32.0877 21.6355 31.9764 22.3714 31.9443 22.597H31.0197L30.8124 24.1273C30.7568 24.5201 30.7889 24.6625 31.0596 24.6625C31.2589 24.6622 31.5538 24.5452 31.737 24.4531ZM24.5769 22.7725C24.6804 22.0614 24.6244 21.4177 23.8355 21.4177C23.2616 21.4177 22.6399 21.9027 22.2014 22.7137C22.297 22.0447 22.2413 21.4177 21.46 21.4177C20.8702 21.4177 20.2324 21.9277 19.7942 22.7725C19.9057 22.2205 19.8818 21.5934 19.8499 21.4594C19.3957 21.5347 18.997 21.5764 18.4391 21.5932C18.4549 21.9778 18.4309 22.4796 18.3592 22.956L18.1759 24.2103C18.1042 24.7035 18.0245 25.2727 17.945 25.632H19.4276C19.4354 25.4146 19.4911 25.0717 19.531 24.7705L19.6585 23.909C19.762 23.3487 20.2084 22.6881 20.5514 22.6881C20.7505 22.6881 20.7428 22.8804 20.6869 23.2403L20.5435 24.2101C20.4719 24.7031 20.3921 25.2723 20.3125 25.6318H21.811C21.8192 25.4144 21.8669 25.0714 21.9068 24.7703L22.0343 23.9089C22.1377 23.3485 22.5841 22.6879 22.9269 22.6879C23.1264 22.6879 23.1184 22.8717 23.0864 23.1226L22.7285 25.6311H24.0958L24.5769 22.7725ZM36.1528 23.2201C36.1528 24.6265 35.1595 25.7955 33.8433 25.7955C32.6642 25.7955 32.0586 24.9906 32.0586 23.94C32.0586 22.5425 33.06 21.373 34.3683 21.373C35.5632 21.3733 36.1528 22.1782 36.1528 23.2201ZM33.4932 23.9128C33.4932 24.4231 33.6606 24.6823 33.9474 24.6823C34.3302 24.6823 34.6328 24.0635 34.6328 23.311C34.6328 22.7926 34.4654 22.5418 34.1866 22.5418C33.8042 22.5415 33.4932 23.1515 33.4932 23.9128ZM17.8736 23.2495C17.8736 24.6375 16.8932 25.7916 15.5939 25.7916C14.4302 25.7916 13.8323 24.9974 13.8323 23.9604C13.8323 22.5807 14.8208 21.4267 16.112 21.4267C17.2916 21.4264 17.8736 22.2208 17.8736 23.2495ZM15.2672 23.9128C15.2672 24.4231 15.4346 24.6823 15.7214 24.6823C16.1042 24.6823 16.4069 24.0635 16.4069 23.311C16.4069 22.7926 16.2395 22.5418 15.9604 22.5418C15.578 22.5415 15.2672 23.1515 15.2672 23.9128ZM13.8563 21.5263L13.8323 22.2875L11.8478 24.445C12.6767 24.445 13.2029 24.4364 13.5056 24.4198C13.418 24.8295 13.3464 25.164 13.2746 25.6656C12.8762 25.6324 12.2544 25.6239 11.6327 25.6239C10.9394 25.6239 10.3334 25.6324 9.84717 25.6656L9.86301 24.8965L11.8478 22.7472C10.9791 22.7472 10.6602 22.7556 10.3014 22.7641C10.3811 22.3794 10.4369 21.9529 10.4928 21.5263C11.1224 21.5515 11.3696 21.5597 12.1904 21.5597C12.9476 21.5599 13.3781 21.5515 13.8563 21.5263Z" fill="white"/>
<path d="M26.08 25.6872C25.3718 25.7742 24.9054 25.493 24.7652 24.8534C24.6771 24.4512 24.7992 23.993 25.0128 23.7195C25.2982 23.3619 25.7643 23.1322 26.332 23.0625C26.7893 23.0065 27.1746 23.0339 27.5349 23.1024L27.5499 23.0406C27.56 22.942 27.5703 22.8432 27.5558 22.7246C27.5188 22.422 27.2793 22.241 26.6894 22.3138C26.2911 22.3625 25.9121 22.5065 25.6177 22.6704L25.3321 21.8055C25.7303 21.5766 26.2332 21.4023 26.8086 21.3318C27.9075 21.1968 28.6794 21.5474 28.7782 22.3526C28.8047 22.567 28.8078 22.7943 28.7808 23.0002C28.6395 23.9961 28.5491 24.7455 28.5096 25.2483C28.5036 25.3255 28.5038 25.4592 28.511 25.6491L27.1475 25.6479C27.1764 25.5689 27.2025 25.4631 27.2256 25.3296C27.2408 25.2417 27.2517 25.1307 27.2587 24.9965C26.9696 25.3914 26.574 25.6265 26.08 25.6872ZM26.5074 24.9225C27.009 24.861 27.3541 24.3771 27.4374 23.8944L27.4514 23.7651C27.2357 23.7164 26.9243 23.6798 26.6221 23.717C26.3342 23.7526 26.0946 23.8719 25.9658 24.0453C25.869 24.1694 25.8197 24.3182 25.8413 24.4951C25.8741 24.761 26.168 24.9638 26.5074 24.9225Z" fill="white"/>
</g>
<defs>
<clipPath id="clip0_1_74">
<rect width="30" height="30" fill="white" transform="translate(8 8)"/>
</clipPath>
</defs>
</svg>
